<?xml version="1.0" ?><svg enable-background="new 0 0 32 32" id="Outline" version="1.1" viewBox="0 0 32 32" xml:space="preserve" xmlns="http://www.w3.org/2000/svg" xmlns:xlink="http://www.w3.org/1999/xlink"><title/><desc/><g><path d="M8.285,22.301C7.894,22.113,7.462,22,7,22c-1.654,0-3,1.346-3,3s1.346,3,3,3s3-1.346,3-3c0-0.462-0.113-0.894-0.301-1.285   L24.707,8.707l-1.414-1.414L8.285,22.301z M7,26c-0.551,0-1-0.449-1-1s0.449-1,1-1s1,0.449,1,1S7.551,26,7,26z"/><path d="M29.707,2.293c-2.044-2.044-5.37-2.044-7.414,0l-15.72,15.72c-1.954,0.118-3.761,1.043-5.008,2.579   c-1.336,1.646-1.85,3.798-1.408,5.906c0.554,2.644,2.702,4.792,5.345,5.345c0.496,0.104,0.994,0.155,1.487,0.155   c1.605,0,3.161-0.541,4.419-1.563c1.536-1.247,2.461-3.054,2.579-5.008l15.72-15.72C31.751,7.663,31.751,4.337,29.707,2.293z    M28.293,8.293l-16,16C12.105,24.48,12,24.735,12,25c0,1.511-0.675,2.926-1.853,3.883c-1.176,0.954-2.72,1.318-4.235,1.003   c-1.878-0.394-3.405-1.92-3.798-3.798c-0.317-1.516,0.048-3.059,1.003-4.235C4.074,20.675,5.489,20,7,20   c0.265,0,0.52-0.105,0.707-0.293l16-16C24.339,3.075,25.169,2.759,26,2.759s1.661,0.316,2.293,0.948   C29.557,4.971,29.557,7.029,28.293,8.293z"/></g></svg>